Normalized EMG Linear Envelopes
nRows=217
nColumns=4

endheader
time	 med_gas_r	  soleus_r	 tib_ant_r	
3.09375	  0.009626	  0.019227	  0.036671	
3.12702	  0.010118	  0.018204	  0.036608	
3.16028	  0.010524	  0.017384	  0.036535	
3.19355	  0.010786	  0.016876	  0.036447	
3.22681	  0.010858	  0.016739	  0.036346	
3.26008	  0.010731	  0.016989	  0.036239	
3.29335	  0.010448	  0.017605	  0.036137	
3.32661	  0.010096	  0.018524	  0.036050	
3.35988	  0.009756	  0.019621	  0.035978	
3.39315	  0.009462	  0.020715	  0.035911	
3.42641	  0.009183	  0.021639	  0.035830	
3.45968	  0.008864	  0.022319	  0.035726	
3.49294	  0.008481	  0.022780	  0.035606	
3.52621	  0.008069	  0.023079	  0.035505	
3.55948	  0.007701	  0.023226	  0.035457	
3.59274	  0.007442	  0.023172	  0.035477	
3.62601	  0.007319	  0.022882	  0.035541	
3.65927	  0.007314	  0.022400	  0.035604	
3.69254	  0.007384	  0.021850	  0.035631	
3.72581	  0.007483	  0.021384	  0.035619	
3.75907	  0.007585	  0.021128	  0.035603	
3.79234	  0.007680	  0.021151	  0.035633	
3.8256	  0.007775	  0.021456	  0.035746	
3.85887	  0.007877	  0.021972	  0.035948	
3.89214	  0.007992	  0.022564	  0.036212	
3.9254	  0.008129	  0.023067	  0.036492	
3.95867	  0.008298	  0.023349	  0.036743	
3.99194	  0.008502	  0.023333	  0.036934	
4.0252	  0.008723	  0.023000	  0.037058	
4.05847	  0.008928	  0.022375	  0.037125	
4.09173	  0.009096	  0.021550	  0.037150	
4.125	  0.009231	  0.020697	  0.037144	
4.15827	  0.009353	  0.020018	  0.037110	
4.19153	  0.009473	  0.019644	  0.037044	
4.2248	  0.009564	  0.019548	  0.036938	
4.25806	  0.009582	  0.019562	  0.036789	
4.29133	  0.009499	  0.019489	  0.036603	
4.3246	  0.009328	  0.019222	  0.036390	
4.35786	  0.009105	  0.018791	  0.036138	
4.39113	  0.008862	  0.018321	  0.035806	
4.4244	  0.008607	  0.017921	  0.035333	
4.45766	  0.008334	  0.017620	  0.034669	
4.49093	  0.008044	  0.017362	  0.033801	
4.52419	  0.007758	  0.017074	  0.032750	
4.55746	  0.007508	  0.016728	  0.031560	
4.59073	  0.007325	  0.016358	  0.030319	
4.62399	  0.007231	  0.016018	  0.029204	
4.65726	  0.007245	  0.015744	  0.028545	
4.69052	  0.007390	  0.015568	  0.028860	
4.72379	  0.007694	  0.015571	  0.030863	
4.75706	  0.008176	  0.015934	  0.035477	
4.79032	  0.008837	  0.016948	  0.043819	
4.82359	  0.009653	  0.018969	  0.057048	
4.85685	  0.010586	  0.022360	  0.075986	
4.89012	  0.011605	  0.027433	  0.100618	
4.92339	  0.012709	  0.034395	  0.129838	
4.95665	  0.013935	  0.043301	  0.161752	
4.98992	  0.015356	  0.054022	  0.194442	
5.02319	  0.017057	  0.066281	  0.226657	
5.05645	  0.019098	  0.079742	  0.257916	
5.08972	  0.021474	  0.094122	  0.288102	
5.12298	  0.024091	  0.109251	  0.317108	
5.15625	  0.026793	  0.125042	  0.344964	
5.18952	  0.029425	  0.141348	  0.372256	
5.22278	  0.031904	  0.157713	  0.400213	
5.25605	  0.034259	  0.173186	  0.430046	
5.28931	  0.036611	  0.186469	  0.461922	
5.32258	  0.039114	  0.196491	  0.494483	
5.35585	  0.041861	  0.203043	  0.525537	
5.38911	  0.044799	  0.206911	  0.553532	
5.42238	  0.047717	  0.209317	  0.578533	
5.45565	  0.050327	  0.211134	  0.601701	
5.48891	  0.052425	  0.212550	  0.623611	
5.52218	  0.053996	  0.213348	  0.643043	
5.55544	  0.055214	  0.213464	  0.657656	
5.58871	  0.056325	  0.213320	  0.666068	
5.62198	  0.057513	  0.213687	  0.669252	
5.65524	  0.058826	  0.215203	  0.669700	
5.68851	  0.060190	  0.217947	  0.669057	
5.72177	  0.061504	  0.221455	  0.666493	
5.75504	  0.062722	  0.225150	  0.659262	
5.78831	  0.063852	  0.228752	  0.644796	
5.82157	  0.064871	  0.232249	  0.622485	
5.85484	  0.065652	  0.235564	  0.594120	
5.8881	  0.066003	  0.238365	  0.563372	
5.92137	  0.065791	  0.240256	  0.535042	
5.95464	  0.065028	  0.241058	  0.514149	
5.9879	  0.063815	  0.240823	  0.504550	
6.02117	  0.062223	  0.239535	  0.507442	
6.05444	  0.060237	  0.236897	  0.520806	
6.0877	  0.057832	  0.232491	  0.540381	
6.12097	  0.055094	  0.226219	  0.561482	
6.15423	  0.052252	  0.218591	  0.580392	
6.1875	  0.049608	  0.210627	  0.594705	
6.22077	  0.047459	  0.203521	  0.603045	
6.25403	  0.046079	  0.198403	  0.604862	
6.2873	  0.045710	  0.196230	  0.600491	
6.32056	  0.046509	  0.197643	  0.591119	
6.35383	  0.048420	  0.202665	  0.578388	
6.3871	  0.051106	  0.210467	  0.563841	
6.42036	  0.054005	  0.219575	  0.548583	
6.45363	  0.056525	  0.228558	  0.533327	
6.4869	  0.058271	  0.236776	  0.518753	
6.52016	  0.059168	  0.244585	  0.506051	
6.55343	  0.059428	  0.252866	  0.497391	
6.58669	  0.059383	  0.262246	  0.495787	
6.61996	  0.059315	  0.272589	  0.504006	
6.65323	  0.059363	  0.283074	  0.522988	
6.68649	  0.059561	  0.292743	  0.551071	
6.71976	  0.059927	  0.301093	  0.584790	
6.75302	  0.060512	  0.308172	  0.620486	
6.78629	  0.061317	  0.313981	  0.655082	
6.81956	  0.062156	  0.317621	  0.685452	
6.85282	  0.062624	  0.317053	  0.707660	
6.88609	  0.062263	  0.310004	  0.717709	
6.91935	  0.060856	  0.295574	  0.713623	
6.95262	  0.058616	  0.275313	  0.696985	
6.98589	  0.056100	  0.252826	  0.672350	
7.01915	  0.053902	  0.232145	  0.644893	
7.05242	  0.052370	  0.216189	  0.618195	
7.08569	  0.051551	  0.206391	  0.593767	
7.11895	  0.051343	  0.203333	  0.572293	
7.15222	  0.051669	  0.207222	  0.555213	
7.18548	  0.052522	  0.217456	  0.545082	
7.21875	  0.053876	  0.231861	  0.544347	
7.25202	  0.055636	  0.246876	  0.553551	
7.28528	  0.057666	  0.259089	  0.570417	
7.31855	  0.059865	  0.266979	  0.590439	
7.35181	  0.062169	  0.271287	  0.608445	
7.38508	  0.064468	  0.273711	  0.620272	
7.41835	  0.066529	  0.275261	  0.624031	
7.45161	  0.068036	  0.275766	  0.620688	
7.48488	  0.068728	  0.274712	  0.613582	
7.51815	  0.068554	  0.272251	  0.606670	
7.55141	  0.067726	  0.269309	  0.602214	
7.58468	  0.066610	  0.266822	  0.599449	
7.61794	  0.065534	  0.265004	  0.595318	
7.65121	  0.064632	  0.263301	  0.586751	
7.68448	  0.063829	  0.260906	  0.572672	
7.71774	  0.062976	  0.257312	  0.554261	
7.75101	  0.062014	  0.252585	  0.533653	
7.78427	  0.061059	  0.247364	  0.512511	
7.81754	  0.060353	  0.242678	  0.491737	
7.85081	  0.060143	  0.239632	  0.472315	
7.88407	  0.060586	  0.239109	  0.456261	
7.91734	  0.061718	  0.241589	  0.446628	
7.9506	  0.063458	  0.247103	  0.446313	
7.98387	  0.065610	  0.255196	  0.456450	
8.01714	  0.067854	  0.264773	  0.475604	
8.0504	  0.069768	  0.273956	  0.500360	
8.08367	  0.070917	  0.280254	  0.526720	
8.11694	  0.070979	  0.281299	  0.551159	
8.1502	  0.069859	  0.275956	  0.570966	
8.18347	  0.067718	  0.265087	  0.584518	
8.21673	  0.064909	  0.251271	  0.592043	
8.25	  0.061853	  0.237546	  0.596315	
8.28327	  0.058934	  0.226077	  0.602065	
8.31653	  0.056450	  0.217592	  0.613745	
8.3498	  0.054600	  0.211767	  0.632794	
8.38306	  0.053465	  0.208005	  0.656190	
8.41633	  0.052999	  0.205933	  0.677371	
8.4496	  0.053032	  0.205377	  0.689128	
8.48286	  0.053326	  0.206092	  0.686884	
8.51613	  0.053687	  0.207734	  0.670515	
8.5494	  0.054095	  0.210229	  0.643789	
8.58266	  0.054754	  0.214219	  0.612008	
8.61593	  0.056028	  0.221094	  0.579565	
8.64919	  0.058260	  0.232415	  0.548935	
8.68246	  0.061599	  0.249070	  0.521327	
8.71573	  0.065918	  0.270692	  0.497940	
8.74899	  0.070831	  0.295651	  0.480531	
8.78226	  0.075788	  0.321468	  0.470913	
8.81552	  0.080194	  0.345394	  0.470125	
8.84879	  0.083551	  0.365017	  0.478241	
8.88206	  0.085617	  0.378944	  0.495053	
8.91532	  0.086504	  0.387324	  0.520818	
8.94859	  0.086628	  0.391765	  0.556098	
8.98185	  0.086474	  0.394275	  0.600434	
9.01512	  0.086284	  0.395627	  0.650792	
9.04839	  0.085862	  0.394363	  0.701257	
9.08165	  0.084678	  0.387591	  0.744751	
9.11492	  0.082244	  0.373308	  0.775803	
9.14819	  0.078508	  0.352400	  0.792250	
9.18145	  0.073944	  0.328489	  0.794610	
9.21472	  0.069281	  0.305754	  0.784156	
9.24798	  0.065114	  0.286701	  0.761926	
9.28125	  0.061697	  0.271626	  0.729401	
9.31452	  0.058963	  0.259610	  0.689410	
9.34778	  0.056672	  0.249588	  0.645580	
9.38105	  0.054528	  0.240580	  0.600676	
9.41431	  0.052275	  0.231524	  0.555674	
9.44758	  0.049765	  0.221487	  0.510667	
9.48085	  0.047004	  0.210256	  0.466637	
9.51411	  0.044128	  0.198566	  0.426219	
9.54738	  0.041295	  0.187489	  0.392608	
9.58065	  0.038577	  0.177451	  0.367548	
9.61391	  0.035910	  0.167790	  0.350141	
9.64718	  0.033177	  0.157249	  0.337304	
9.68044	  0.030329	  0.144933	  0.325182	
9.71371	  0.027453	  0.130933	  0.310253	
9.74698	  0.024728	  0.116214	  0.289705	
9.78024	  0.022330	  0.102034	  0.261741	
9.81351	  0.020350	  0.089381	  0.226336	
9.84677	  0.018800	  0.078737	  0.185881	
9.88004	  0.017640	  0.070101	  0.144723	
9.91331	  0.016796	  0.063149	  0.107513	
9.94657	  0.016147	  0.057415	  0.077424	
9.97984	  0.015531	  0.052461	  0.055420	
10.0131	  0.014810	  0.048001	  0.040744	
10.0464	  0.013942	  0.043997	  0.031918	
10.0796	  0.013012	  0.040710	  0.027453	
10.1129	  0.012183	  0.038679	  0.026079	
10.1462	  0.011609	  0.038527	  0.026722	
10.1794	  0.011373	  0.040648	  0.028478	
10.2127	  0.011476	  0.044953	  0.030648	
10.246	  0.011857	  0.050888	  0.032773	
10.2792	  0.012416	  0.057660	  0.034616	
